<?xml version="1.0" encoding="UTF-8" standalone="no"?>
<svg
   viewBox="0 0 256 256"
   fill="currentColor"
   version="1.1"
   id="svg1"
   sodipodi:docname="suitcase-simple.svg"
   inkscape:version="1.3.2 (091e20e, 2023-11-25, custom)"
   xmlns:inkscape="http://www.inkscape.org/namespaces/inkscape"
   xmlns:sodipodi="http://sodipodi.sourceforge.net/DTD/sodipodi-0.dtd"
   xmlns="http://www.w3.org/2000/svg"
   xmlns:svg="http://www.w3.org/2000/svg">
  <defs
     id="defs1" />
  <sodipodi:namedview
     id="namedview1"
     pagecolor="#ffffff"
     bordercolor="#000000"
     borderopacity="0.25"
     inkscape:showpageshadow="2"
     inkscape:pageopacity="0.0"
     inkscape:pagecheckerboard="0"
     inkscape:deskcolor="#d1d1d1"
     inkscape:zoom="3.4648438"
     inkscape:cx="128"
     inkscape:cy="128"
     inkscape:window-width="1920"
     inkscape:window-height="1129"
     inkscape:window-x="-8"
     inkscape:window-y="-8"
     inkscape:window-maximized="1"
     inkscape:current-layer="svg1" />
  <path
     d="M 232.07685,52.307657 H 184.76926 V 42.84612 A 28.384611,28.384611 0 0 0 156.38463,14.461508 H 99.615372 A 28.384611,28.384611 0 0 0 71.230778,42.84612 v 9.461537 H 23.923074 A 18.923074,18.923074 0 0 0 5,71.230735 V 222.61534 a 18.923074,18.923074 0 0 0 18.923074,18.92315 H 232.07685 A 18.923074,18.923074 0 0 0 251,222.61534 V 71.230735 A 18.923074,18.923074 0 0 0 232.07685,52.307657 Z M 90.153852,42.84612 a 9.4615389,9.4615389 0 0 1 9.46152,-9.461537 h 56.769258 a 9.4615389,9.4615389 0 0 1 9.46148,9.461537 v 9.461537 H 90.153852 Z M 232.07685,71.230735 V 156.3846 H 23.923074 V 71.230735 Z m 0,151.384605 H 23.923074 V 175.30775 H 232.07685 Z"
     id="path1"
     style="fill:#ececec;stroke-width:1.18278" />
</svg>
