<?xml version="1.0" encoding="UTF-8" standalone="no"?>
<svg
   version="1.0"
   width="1280.000000pt"
   height="1280.000000pt"
   viewBox="0 0 1280.000000 1280.000000"
   preserveAspectRatio="xMidYMid meet"
   id="svg8"
   sodipodi:docname="cog-wheel.svg"
   inkscape:version="1.1.2 (0a00cf5339, 2022-02-04)"
   xmlns:inkscape="http://www.inkscape.org/namespaces/inkscape"
   xmlns:sodipodi="http://sodipodi.sourceforge.net/DTD/sodipodi-0.dtd"
   xmlns="http://www.w3.org/2000/svg"
   xmlns:svg="http://www.w3.org/2000/svg">
  <defs
     id="defs12" />
  <sodipodi:namedview
     id="namedview10"
     pagecolor="#ffffff"
     bordercolor="#666666"
     borderopacity="1.0"
     inkscape:pageshadow="2"
     inkscape:pageopacity="0.0"
     inkscape:pagecheckerboard="0"
     inkscape:document-units="pt"
     showgrid="false"
     inkscape:zoom="0.52675781"
     inkscape:cx="852.38413"
     inkscape:cy="853.33333"
     inkscape:window-width="1920"
     inkscape:window-height="1123"
     inkscape:window-x="0"
     inkscape:window-y="0"
     inkscape:window-maximized="1"
     inkscape:current-layer="svg8" />
  <metadata
     id="metadata2">
Created by potrace 1.15, written by Peter Selinger 2001-2017
</metadata>
  <g
     transform="matrix(0.0976144,0,0,-0.0976144,15.251661,1264.71)"
     fill="#000000"
     stroke="none"
     id="g6"
     style="fill:#cccccc">
    <path
       d="m 6022,12689 c -195,-24 -328,-75 -399,-152 -81,-88 -93,-155 -73,-436 15,-223 7,-299 -45,-408 -76,-162 -243,-283 -514,-373 -231,-77 -461,-104 -601,-71 -165,40 -283,140 -389,331 -120,215 -141,248 -186,293 -101,101 -217,118 -395,58 -221,-75 -545,-285 -667,-433 -71,-87 -88,-130 -88,-228 0,-105 22,-155 149,-344 101,-150 140,-223 161,-303 57,-217 -53,-469 -321,-738 -297,-298 -541,-372 -809,-246 -33,16 -123,66 -201,113 -167,100 -230,123 -319,116 -82,-7 -152,-45 -232,-126 -122,-123 -292,-417 -363,-627 -28,-84 -34,-115 -34,-195 -1,-84 2,-101 27,-151 46,-94 109,-143 322,-252 105,-53 216,-117 247,-142 188,-151 233,-413 137,-796 -76,-301 -197,-497 -357,-578 -114,-58 -153,-64 -417,-66 -186,-2 -251,-6 -288,-18 -187,-60 -257,-225 -257,-606 0,-443 82,-671 266,-741 57,-21 66,-22 319,-15 294,8 349,1 458,-58 161,-85 302,-311 377,-601 66,-258 61,-446 -15,-596 -58,-115 -145,-189 -362,-308 -172,-96 -236,-147 -278,-223 -26,-48 -30,-63 -30,-139 1,-104 23,-177 104,-345 54,-111 170,-298 228,-370 14,-16 57,-63 96,-103 133,-135 263,-174 398,-119 31,13 125,70 210,127 219,147 299,180 434,180 147,0 289,-60 476,-202 137,-104 235,-205 319,-330 91,-136 126,-249 117,-378 -8,-116 -50,-219 -159,-393 -28,-45 -67,-116 -87,-157 -32,-67 -36,-84 -36,-155 1,-100 24,-152 109,-243 152,-162 422,-328 666,-408 69,-22 104,-28 185,-28 87,-1 106,2 145,23 83,43 128,103 232,312 58,116 116,218 145,253 98,121 231,184 408,193 113,6 389,-19 475,-43 215,-59 389,-166 469,-284 82,-124 106,-237 99,-465 -10,-288 26,-394 157,-470 54,-31 212,-80 308,-95 111,-18 422,-7 545,19 181,38 295,115 338,226 22,57 25,173 10,415 -14,238 22,348 154,480 87,87 133,116 330,206 186,84 235,101 345,119 256,42 436,-3 576,-144 62,-63 97,-116 220,-335 53,-95 127,-179 183,-208 80,-41 244,-32 401,22 154,53 402,209 533,334 63,60 91,96 119,152 34,70 35,77 31,151 -7,101 -25,140 -149,325 -110,164 -140,220 -164,313 -20,79 -19,146 4,237 26,103 65,176 187,354 260,380 561,536 849,440 48,-16 141,-63 232,-118 196,-116 259,-142 343,-142 121,-1 218,66 370,255 125,156 217,325 272,499 18,58 23,98 23,175 0,89 -3,105 -27,151 -47,89 -119,144 -321,243 -109,54 -206,109 -241,138 -110,89 -172,210 -185,365 -8,93 3,331 20,423 26,142 106,344 178,448 45,66 132,142 201,177 98,49 167,60 410,60 277,0 337,15 413,99 80,88 110,198 128,461 27,407 -58,685 -236,769 -66,31 -145,36 -357,21 -226,-16 -305,-8 -413,44 -132,62 -217,162 -320,378 -62,131 -108,283 -131,442 -43,295 40,501 258,639 29,19 113,67 185,107 152,83 214,138 250,217 52,114 31,240 -76,458 -186,377 -406,605 -582,605 -91,0 -152,-27 -329,-144 -91,-60 -189,-120 -218,-134 -264,-121 -530,-32 -848,283 -215,213 -304,379 -304,565 0,131 29,210 156,422 107,177 128,231 129,318 0,64 -4,84 -29,133 -60,118 -241,260 -492,387 -191,97 -305,133 -424,134 -179,1 -236,-50 -383,-346 -82,-165 -107,-206 -161,-265 -145,-157 -354,-206 -658,-154 -366,63 -628,204 -721,387 -54,107 -59,141 -66,424 -6,246 -8,269 -29,315 -46,102 -141,168 -289,201 -81,19 -449,27 -561,13 z m 838,-2033 c 493,-59 929,-185 1358,-392 475,-229 844,-494 1212,-870 641,-656 1035,-1473 1160,-2404 41,-304 38,-781 -6,-1110 C 10380,4373 9353,3066 7935,2511 7476,2331 7063,2244 6562,2220 5472,2170 4397,2549 3570,3277 2725,4021 2220,5050 2140,6190 c -97,1389 549,2781 1685,3630 674,503 1392,775 2250,850 151,13 627,4 785,-14 z"
       id="path4"
       style="fill:#cccccc" />
  </g>
</svg>
