<?xml version="1.0" encoding="UTF-8" standalone="no"?>
<!-- Uploaded to: SVG Repo, www.svgrepo.com, Generator: SVG Repo Mixer Tools -->

<svg
   fill="#000000"
   width="800px"
   height="800px"
   viewBox="-2 -2.5 24 24"
   preserveAspectRatio="xMinYMin"
   class="jam jam-gitlab"
   version="1.1"
   id="svg831"
   sodipodi:docname="gitlab.svg"
   inkscape:version="1.1.2 (0a00cf5339, 2022-02-04)"
   xmlns:inkscape="http://www.inkscape.org/namespaces/inkscape"
   xmlns:sodipodi="http://sodipodi.sourceforge.net/DTD/sodipodi-0.dtd"
   xmlns="http://www.w3.org/2000/svg"
   xmlns:svg="http://www.w3.org/2000/svg">
  <defs
     id="defs835" />
  <sodipodi:namedview
     id="namedview833"
     pagecolor="#ffffff"
     bordercolor="#666666"
     borderopacity="1.0"
     inkscape:pageshadow="2"
     inkscape:pageopacity="0.0"
     inkscape:pagecheckerboard="0"
     showgrid="false"
     inkscape:zoom="1.03"
     inkscape:cx="400"
     inkscape:cy="399.51456"
     inkscape:window-width="1920"
     inkscape:window-height="1123"
     inkscape:window-x="0"
     inkscape:window-y="0"
     inkscape:window-maximized="1"
     inkscape:current-layer="svg831" />
  <path
     d="M 10.006,19.852538 5.762603,6.7936547 h 8.486845 z m 0,0 L -0.18509625,6.7936547 H 5.762603 Z M -0.18509625,6.7936547 10.006,19.852538 -1.1560078,11.743928 A 0.87866352,0.87866352 0 0 1 -1.4742634,10.76147 Z m 0,0 2.55642535,-7.8664592 a 0.43817876,0.43817876 0 0 1 0.8348485,0 L 5.762603,6.7936547 Z M 10.006,19.852538 14.249448,6.7936547 h 5.946531 z M 20.195979,6.7936547 21.486288,10.76147 a 0.87866352,0.87866352 0 0 1 -0.319381,0.982458 l -11.16206,8.10861 z m 0,0 H 14.249448 L 16.8047,-1.0728045 a 0.43817876,0.43817876 0 0 1 0.835976,0 z"
     id="path829"
     style="fill:#ececec;stroke-width:1.153" />
</svg>
