<?xml version="1.0" encoding="UTF-8" standalone="no"?>
<!-- Created with Inkscape (http://www.inkscape.org/) -->

<svg
   width="410.12195"
   height="410.12195"
   id="svg2184"
   sodipodi:version="0.32"
   inkscape:version="1.1.2 (0a00cf5339, 2022-02-04)"
   version="1.0"
   sodipodi:docname="network.svg"
   inkscape:output_extension="org.inkscape.output.svg.inkscape"
   xml:space="preserve"
   xmlns:inkscape="http://www.inkscape.org/namespaces/inkscape"
   xmlns:sodipodi="http://sodipodi.sourceforge.net/DTD/sodipodi-0.dtd"
   xmlns="http://www.w3.org/2000/svg"
   xmlns:svg="http://www.w3.org/2000/svg"
   xmlns:rdf="http://www.w3.org/1999/02/22-rdf-syntax-ns#"
   xmlns:cc="http://creativecommons.org/ns#"
   xmlns:dc="http://purl.org/dc/elements/1.1/"><sodipodi:namedview
     id="base"
     pagecolor="#ffffff"
     bordercolor="#666666"
     borderopacity="1.0"
     inkscape:pageopacity="0.0"
     inkscape:pageshadow="2"
     inkscape:zoom="1.0960155"
     inkscape:cx="205.28907"
     inkscape:cy="204.83288"
     inkscape:document-units="px"
     inkscape:current-layer="layer1"
     inkscape:showpageshadow="false"
     showborder="true"
     showgrid="true"
     inkscape:window-width="1920"
     inkscape:window-height="1123"
     inkscape:window-x="0"
     inkscape:window-y="0"
     showguides="true"
     inkscape:object-points="false"
     inkscape:object-bbox="false"
     inkscape:grid-points="false"
     width="1052.3622px"
     height="744.09449px"
     inkscape:pagecheckerboard="true"
     inkscape:deskcolor="#d1d1d1"
     inkscape:window-maximized="1" /><defs
     id="defs2186" /><metadata
     id="metadata2189"><rdf:RDF><cc:Work
         rdf:about=""><dc:format>image/svg+xml</dc:format><dc:type
           rdf:resource="http://purl.org/dc/dcmitype/StillImage" /></cc:Work></rdf:RDF></metadata><g
     transform="translate(23.931421,-257.866)"
     inkscape:groupmode="layer"
     id="layer1"
     inkscape:label="Calque 1"><g
       id="g15733"
       transform="matrix(1.236816,0,0,1.236816,-42.894786,-109.62946)"
       style="fill:#888888"><path
         style="color:#000000;fill:#888888;stroke-linecap:round;stroke-linejoin:round;-inkscape-stroke:none;paint-order:markers stroke fill"
         d="m 95.464844,-80.154297 a 9.2615757,9.2615757 0 0 0 -11.085938,4.335938 L 6.5195312,66.777344 -71.339844,209.37305 a 9.2615757,9.2615757 0 0 0 8.34961,13.69531 l 162.419921,-3.86914 162.419923,-3.86914 a 9.2615757,9.2615757 0 0 0 7.6875,-14.07813 L 184.97461,62.525391 100.41406,-76.199219 a 9.2615757,9.2615757 0 0 0 -4.949216,-3.955078 z M 92.947266,-52.861328 169.16016,72.166016 245.37305,197.19531 98.988281,200.68359 -47.398437,204.16992 22.775391,75.654297 Z"
         id="path15434"
         transform="matrix(0.5031854,-0.48353322,0.48353322,0.5031854,61.609012,434.07867)" /><g
         id="path15488"
         style="fill:#888888"><path
           style="color:#000000;fill:#888888;stroke-linecap:round;stroke-linejoin:round;-inkscape-stroke:none;paint-order:markers stroke fill"
           d="m 77.113281,312.4668 c -31.021326,0 -56.445312,25.42398 -56.445312,56.44531 0,31.02133 25.423986,56.44726 56.445312,56.44726 31.021329,0 56.447269,-25.42593 56.447269,-56.44726 0,-31.02133 -25.42594,-56.44531 -56.447269,-56.44531 z m 0,25.84961 c 17.050801,0 30.595699,13.5449 30.595699,30.5957 0,17.0508 -13.544898,30.5957 -30.595699,30.5957 -17.050801,0 -30.595703,-13.5449 -30.595703,-30.5957 0,-17.0508 13.544902,-30.5957 30.595703,-30.5957 z"
           id="path15715" /><path
           style="color:#000000;fill:#888888;stroke-width:25.8503;stroke-linecap:round;stroke-linejoin:round;-inkscape-stroke:none;paint-order:markers stroke fill"
           d="M 120.6351,368.91245 A 43.521187,43.521187 0 0 1 77.113914,412.43363 43.521187,43.521187 0 0 1 33.592728,368.91245 43.521187,43.521187 0 0 1 77.113914,325.39126 43.521187,43.521187 0 0 1 120.6351,368.91245 Z"
           id="path15717" /></g><g
         id="path15488-5"
         style="fill:#888888"><path
           style="color:#000000;fill:#888888;stroke-linecap:round;stroke-linejoin:round;-inkscape-stroke:none;paint-order:markers stroke fill"
           d="m 285.14453,353.37695 c -31.02133,0 -56.44531,25.42399 -56.44531,56.44532 0,31.02132 25.42398,56.44726 56.44531,56.44726 31.02133,0 56.44727,-25.42594 56.44727,-56.44726 0,-31.02133 -25.42594,-56.44532 -56.44727,-56.44532 z m 0,25.84961 c 17.0508,0 30.59766,13.5449 30.59766,30.59571 0,17.0508 -13.54686,30.5957 -30.59766,30.5957 -17.0508,0 -30.5957,-13.5449 -30.5957,-30.5957 0,-17.05081 13.5449,-30.59571 30.5957,-30.59571 z"
           id="path15709" /><path
           style="color:#000000;fill:#888888;stroke-width:25.8503;stroke-linecap:round;stroke-linejoin:round;-inkscape-stroke:none;paint-order:markers stroke fill"
           d="m 328.66639,409.82239 a 43.521187,43.521187 0 0 1 -43.52119,43.52118 43.521187,43.521187 0 0 1 -43.52118,-43.52118 43.521187,43.521187 0 0 1 43.52118,-43.52119 43.521187,43.521187 0 0 1 43.52119,43.52119 z"
           id="path15711" /></g><g
         id="path15488-5-6"
         style="fill:#888888"><path
           style="color:#000000;fill:#888888;stroke-linecap:round;stroke-linejoin:round;-inkscape-stroke:none;paint-order:markers stroke fill"
           d="m 142.39648,500.49609 c -31.02132,0 -56.447261,25.42399 -56.447261,56.44532 0,31.02132 25.425941,56.44726 56.447261,56.44726 31.02133,0 56.44532,-25.42594 56.44532,-56.44726 0,-31.02133 -25.42399,-56.44532 -56.44532,-56.44532 z m 0,25.84961 c 17.05081,0 30.59571,13.54491 30.59571,30.59571 0,17.0508 -13.5449,30.5957 -30.59571,30.5957 -17.0508,0 -30.59765,-13.5449 -30.59765,-30.5957 0,-17.0508 13.54685,-30.59571 30.59765,-30.59571 z"
           id="path15703" /><path
           style="color:#000000;fill:#888888;stroke-width:25.8503;stroke-linecap:round;stroke-linejoin:round;-inkscape-stroke:none;paint-order:markers stroke fill"
           d="m 185.91688,556.94147 a 43.521187,43.521187 0 0 1 -43.52119,43.52118 43.521187,43.521187 0 0 1 -43.521186,-43.52118 43.521187,43.521187 0 0 1 43.521186,-43.52119 43.521187,43.521187 0 0 1 43.52119,43.52119 z"
           id="path15705" /></g></g></g></svg>
